<svg width="40" height="40" viewBox="0 0 40 40" fill="none" xmlns="http://www.w3.org/2000/svg">
<g clip-path="url(#clip0_9_20)">
<path d="M20 0C8.95437 0 0 8.95437 0 20C0 31.0456 8.95437 40 20 40C31.0456 40 40 31.0456 40 20C40 8.95437 31.0456 0 20 0ZM17.3869 4.00938L17.4969 3.88125C17.7756 3.55938 18.0912 3.195 18.1388 2.56875C18.18 2.04813 17.9963 1.68063 17.7975 1.38313C18.5206 1.29813 19.2544 1.25 20 1.25C20.9156 1.25 21.8144 1.31875 22.695 1.44562C22.8587 1.65 23.0738 1.86312 23.4225 2.00625C23.7925 2.16563 24.2294 2.29188 24.7794 2.16188C24.9419 2.12313 25.0681 2.05437 25.1769 1.97938C25.5631 2.09 25.945 2.21 26.3212 2.34437C26.4531 2.725 26.7062 3.17875 27.3237 3.25688C27.6712 3.30625 27.9619 3.25187 28.2162 3.1425C33.5131 5.72937 37.405 10.7381 38.46 16.7262C38.3575 16.9425 38.3425 17.155 38.3394 17.2894C38.3381 17.3269 38.3413 17.365 38.3444 17.375C38.3219 17.41 38.2931 17.4281 38.1538 17.495C37.9944 17.5719 37.7769 17.6769 37.5763 17.8881C37.3481 18.1238 37.2431 18.3569 37.1587 18.5444C37.0931 18.6906 37.0556 18.77 36.9875 18.8381C36.9437 18.8806 36.8587 18.9062 36.725 18.945C36.4637 19.02 36.0694 19.1331 35.8044 19.5625C35.5525 19.9681 35.5737 20.3431 35.5888 20.6169C35.5906 20.6481 35.5931 20.68 35.5944 20.7125C35.5462 20.7362 35.4875 20.7606 35.4263 20.7806C35.4625 20.5831 35.4675 20.31 35.2906 20.0294C35.0519 19.665 34.7363 19.61 34.57 19.61C34.2525 19.61 34.0131 19.7925 33.8594 19.9419C33.8625 19.6394 33.8556 19.3606 33.8063 19.1519C33.76 18.9419 33.7894 18.825 33.8881 18.4862L33.9225 18.3675C33.9669 18.2063 34.055 18.0912 34.1763 17.9312C34.3431 17.7125 34.5506 17.4406 34.6494 17.0206C34.76 16.5631 34.7275 16.2256 34.6956 15.8988C34.6838 15.7831 34.6719 15.6613 34.6662 15.5206L34.6544 15.19C34.6419 14.8013 34.6319 14.4656 34.5363 13.9756L34.4931 13.7575C34.3969 13.2656 34.3131 12.8412 33.9619 12.3056C33.6613 11.8562 33.4237 11.5406 32.8969 11.2606C32.7725 11.1925 32.6431 11.1375 32.5112 11.0962C32.2981 11.025 32.1031 11.0006 31.9144 10.9762L31.7194 10.95C31.3862 10.9012 31.0862 10.9594 30.8656 11.0044C30.6869 11.0406 30.5731 11.07 30.4837 11.0206C30.3944 10.9719 30.3519 10.9206 30.2413 10.7806C30.1825 10.7063 30.1206 10.6281 30.0387 10.5375C29.9562 10.4488 29.9 10.3663 29.8456 10.2881C29.7381 10.135 29.605 9.94375 29.3706 9.75438C29.1206 9.55125 28.93 9.40875 28.5713 9.28312C27.9331 9.07187 27.3463 9.22937 26.84 9.40875C26.425 9.5525 26.1719 9.76125 25.9475 9.945C25.8494 10.0262 25.7456 10.1125 25.645 10.18C25.5463 10.2375 25.4575 10.2775 25.3737 10.3175C25.1763 10.4094 24.9519 10.5144 24.7038 10.735C24.5312 10.8863 23.9456 11.2681 23.81 11.3025C23.7494 11.3 23.6894 11.2756 23.58 11.2288C23.4388 11.1675 23.2463 11.0856 23.0238 11.0675L22.8881 11.0594C22.8462 11.0594 22.8031 11.0619 22.7712 11.065C22.4875 11.0863 22.2881 11.1788 22.1412 11.2456C22.0837 11.2719 22.025 11.3019 21.9513 11.32C21.735 11.3737 21.4912 11.37 21.2463 11.3569C20.8544 11.3369 20.47 11.3481 20.1175 11.4481C19.8281 11.53 19.6187 11.6713 19.4662 11.775C19.3019 11.8863 19.2625 11.9056 19.2 11.9062C19.1369 11.9062 19.0919 11.88 18.9175 11.7425C18.745 11.6062 18.5081 11.4194 18.1588 11.3225C17.9069 11.255 17.7275 11.2331 17.5375 11.21L17.3644 11.1888C17.0363 11.1413 16.8019 11.1219 16.5363 11.1C16.4131 11.09 16.2831 11.08 16.1313 11.065L15.955 11.0619L15.9263 11.0731C15.9056 11.0744 15.8813 11.0756 15.8544 11.0769L15.8475 11.0725C15.6475 10.9331 15.4406 10.79 15.1369 10.6425C14.9131 10.5325 14.7312 10.4488 14.5312 10.3769C14.5225 10.1538 14.4975 9.85625 14.4306 9.65625C14.4163 9.61063 14.4012 9.57063 14.3819 9.52063C14.3888 9.49187 14.4012 9.44375 14.4256 9.37062C14.5069 9.13562 14.6331 8.95938 14.6881 8.88875C14.7219 8.86563 14.7531 8.84562 14.7831 8.82563C14.9 8.75063 15.0444 8.65688 15.1931 8.49563C15.61 8.05438 15.7994 7.62875 15.8469 7.0225C15.8844 6.48125 15.5825 6.1175 15.3825 5.87625C15.325 5.80813 15.2362 5.70125 15.2238 5.6875C15.2506 5.58188 15.2975 5.53625 15.5587 5.36313C15.7012 5.26875 15.85 5.16812 15.9919 5.04375C16.1531 4.90437 16.3081 4.81625 16.4869 4.71438C16.7669 4.555 17.0837 4.37437 17.3869 4.00938ZM2.75375 27.3656C2.0425 25.7025 1.56625 23.915 1.36312 22.0462C1.51625 21.7587 1.70188 21.48 1.95438 21.1725C2.135 20.9569 2.32687 20.8263 2.54813 20.6756C2.8175 20.4919 3.12313 20.2831 3.4125 19.9212C3.76 19.4981 3.87375 19.0469 3.96562 18.6838C4.06437 18.2944 4.12063 18.1006 4.32687 17.9575C4.61438 17.7612 4.84187 17.74 5.25437 17.7013C5.4025 17.6881 5.55937 17.6725 5.7325 17.6481L5.9625 17.6144C6.77375 17.495 7.29188 17.4412 7.96625 17.6312C8.42375 17.7594 8.70562 17.9731 9.0625 18.2431C9.2975 18.4212 9.56375 18.6225 9.90375 18.8169C10.1675 18.9675 10.3906 19.1338 10.6062 19.2944C11.0881 19.6525 11.5863 20.0225 12.4144 20.1437C12.8894 20.2094 13.2894 20.0625 13.5925 19.9481C13.7444 19.89 13.8881 19.8356 13.9775 19.8356C13.9981 19.8356 14.0244 19.8375 14.0669 19.8606C14.4762 20.0881 14.5675 20.2769 14.5844 20.4062C14.4969 20.4306 14.37 20.4525 14.2769 20.4694C13.8375 20.5462 13.02 20.6894 12.9256 21.5312C12.8781 21.9375 13.0175 22.1919 13.1444 22.3331C13.4719 22.7025 14.0825 22.6631 14.7706 22.5081C15.0669 22.4412 15.3737 22.3713 15.6194 22.3713C15.7312 22.3713 15.7975 22.3862 15.8275 22.3969C16.0087 22.4625 16.2044 22.5106 16.395 22.5556C16.4788 22.575 16.5906 22.6012 16.6869 22.6275C16.6162 22.6406 16.5438 22.6537 16.4825 22.6644C16.1944 22.7138 15.8687 22.77 15.5706 22.9119C15.3356 23.0212 15.135 23.125 14.9469 23.2231C14.5631 23.4219 14.2594 23.5794 13.7969 23.705C13.6556 23.7425 13.4412 23.7106 13.2156 23.6725C13.0369 23.6419 12.8525 23.6106 12.6575 23.6106C12.1963 23.6106 11.8331 23.7937 11.5806 24.1512C11.0031 24.9587 11.3456 25.8031 11.5106 26.21C11.735 26.7619 12.2638 27.42 13.5025 27.42C14.0856 27.42 14.76 27.2781 15.6244 26.9744C16.2206 26.7631 16.57 26.3812 16.85 26.0737C17.0763 25.825 17.255 25.6287 17.5438 25.5L17.8619 25.355C18.5169 25.0531 18.9963 24.8381 19.5112 25.0806C19.6494 25.1456 19.7094 25.2694 19.835 25.5794C19.9806 25.9406 20.1806 26.4356 20.7375 26.7319C21.2444 27.0006 21.8775 26.9031 22.34 26.7706C22.6175 26.6912 22.84 26.6231 23.0012 26.7175C23.1706 26.8181 23.2406 26.9544 23.3694 27.2281C23.4844 27.4725 23.6269 27.7762 23.9025 28.065C23.985 28.1519 24.0625 28.2362 24.1369 28.3175C24.5938 28.8181 25.0262 29.2906 25.8819 29.4931C26.005 29.5219 26.1306 29.5362 26.2556 29.5362C26.6931 29.5362 27.045 29.3619 27.3275 29.2213C27.57 29.1013 27.7569 29.0112 27.9094 29.0588C28.5475 29.2675 28.68 29.4106 28.74 29.6656C28.7925 29.87 28.5762 30.0419 27.775 30.4288C27.6475 30.4906 27.5206 30.5519 27.4 30.6144C26.9694 30.8363 26.6469 30.8638 26.1588 30.9056C25.9638 30.9219 25.7556 30.94 25.5312 30.9706C25.0781 31.0275 24.6687 31.1256 24.2725 31.2206C23.8156 31.3306 23.3837 31.4338 23.0081 31.4338C22.6325 31.4338 22.3325 31.3306 22.0425 31.1031C21.805 30.9131 21.695 30.7113 21.5425 30.4325C21.4319 30.23 21.3069 30.0006 21.1094 29.7394C20.935 29.5194 20.785 29.2031 20.64 28.8963C20.32 28.2194 19.9219 27.3769 19.0163 27.3769C18.8619 27.3769 18.7013 27.4044 18.5387 27.4594C17.835 27.6963 17.6006 28.26 17.4294 28.6712C17.3556 28.8481 17.2862 29.015 17.1925 29.1525C16.9581 29.4869 16.84 29.8419 16.735 30.155C16.5594 30.6806 16.5044 30.7425 16.3644 30.7631C16.1388 30.7956 15.9969 30.7 15.6613 30.4575C15.5613 30.385 15.4575 30.3094 15.3475 30.2369C15.1312 30.0931 15.0037 29.9338 14.8419 29.7313C14.6613 29.5056 14.4563 29.2494 14.1206 29.0081C13.7475 28.7331 13.4106 28.6012 13.1138 28.4844C12.8738 28.3906 12.6663 28.3094 12.4375 28.1575C12.3506 28.0994 12.2738 28.0019 12.1844 27.8881C11.9813 27.6306 11.6744 27.2412 11.0681 27.2194L11.005 27.2181C10.5481 27.2181 9.91 27.3806 9.46375 28.1538C9.30188 28.4338 9.18875 28.8119 9.0675 29.2119C8.87125 29.865 8.60188 30.7581 8.18 30.7581H8.17937C7.74312 30.7288 6.45875 29.6044 5.84125 29.0637C5.39875 28.6762 5.01625 28.3419 4.74062 28.1594L4.53312 28.0163C4.06125 27.6881 3.575 27.35 2.9325 27.35C2.87375 27.35 2.81375 27.3594 2.75375 27.3656ZM20 38.75C12.8225 38.75 6.58875 34.715 3.43812 28.79C3.55813 28.8631 3.68375 28.9475 3.81813 29.0406L4.04437 29.1963C4.25437 29.3356 4.62437 29.6587 5.01625 30.0019C6.31625 31.1394 7.2975 31.9488 8.09688 32.0031C9.50937 32.0963 9.96312 30.565 10.2631 29.57C10.3575 29.2556 10.4563 28.9306 10.545 28.7756C10.7106 28.4894 10.8687 28.4656 11.0275 28.465C11.0625 28.4837 11.1456 28.59 11.2006 28.66C11.3294 28.8237 11.4906 29.0275 11.7425 29.1956C12.0844 29.4225 12.3875 29.5412 12.6562 29.6462C12.9137 29.7469 13.1363 29.8344 13.3825 30.0169C13.5856 30.1619 13.7144 30.3238 13.8644 30.5106C14.0575 30.7513 14.275 31.0231 14.655 31.2769C14.7513 31.3406 14.84 31.405 14.9263 31.4669C15.3313 31.7619 15.7981 32.1025 16.5387 31.9994C17.4794 31.8644 17.7437 31.0737 17.9188 30.5506C18.0044 30.2956 18.085 30.055 18.2194 29.8619C18.3894 29.6131 18.4919 29.3675 18.5812 29.1512C18.7419 28.7662 18.795 28.6906 18.9363 28.6431C18.98 28.6281 19.0037 28.6237 19.02 28.6262C19.1469 28.6662 19.3819 29.1631 19.5081 29.43C19.675 29.7831 19.8644 30.1831 20.1194 30.5044C20.2525 30.68 20.345 30.8506 20.4444 31.0306C20.6231 31.3587 20.8263 31.7313 21.2644 32.0825C21.7812 32.4869 22.3506 32.6838 23.0069 32.6838C23.5306 32.6838 24.0325 32.5637 24.5625 32.4362C24.9256 32.3488 25.3019 32.2588 25.6925 32.21C25.9 32.1819 26.0875 32.1663 26.2631 32.1506C26.8069 32.105 27.32 32.0606 27.9725 31.7244C28.0837 31.6669 28.2 31.6106 28.3175 31.5544C29.0956 31.1781 30.2719 30.61 29.9525 29.3675C29.71 28.3337 28.7906 28.0325 28.2919 27.87C28.1344 27.82 27.9725 27.7944 27.8106 27.7944C27.39 27.7944 27.0463 27.965 26.77 28.1025C26.53 28.2219 26.3294 28.3137 26.1663 28.2769C25.6875 28.1631 25.4506 27.9037 25.0588 27.475C24.9794 27.3875 24.8963 27.2981 24.8075 27.2038C24.6713 27.0606 24.5919 26.8919 24.5 26.6963C24.3425 26.3612 24.1469 25.9444 23.6394 25.6425C23.1294 25.3394 22.4706 25.4319 21.9925 25.57C21.7169 25.6494 21.4944 25.7194 21.3244 25.6281C21.1819 25.5531 21.1175 25.4206 20.9937 25.1125C20.8438 24.7406 20.6388 24.2312 20.0438 23.9506C19.7137 23.7956 19.3856 23.72 19.0419 23.72C18.4231 23.72 17.8956 23.9638 17.3369 24.2219L17.035 24.36C16.5069 24.595 16.185 24.9488 15.9256 25.2331C15.6831 25.4994 15.5081 25.6913 15.2087 25.7969C14.4925 26.0488 13.9344 26.1719 13.5031 26.1719C12.9231 26.1719 12.7563 25.9531 12.6694 25.7413C12.4581 25.2206 12.4781 25.0487 12.6581 24.8631C12.7675 24.8631 12.8844 24.8863 13.0062 24.9069C13.3325 24.9619 13.7562 25.0094 14.12 24.915C14.7162 24.7537 15.1081 24.55 15.5231 24.3344C15.6969 24.2438 15.8813 24.1481 16.1025 24.045C16.2494 23.9756 16.4762 23.9362 16.6944 23.8988C17.18 23.815 18.1919 23.6419 18.1181 22.5962C18.0425 21.6612 17.1906 21.4613 16.6812 21.3412C16.5381 21.3075 16.3912 21.275 16.2506 21.2238C16.0731 21.1606 15.8794 21.1281 15.6606 21.1244C15.7519 20.9894 15.815 20.8219 15.8325 20.6119C15.8856 19.8469 15.4962 19.2275 14.6731 18.7706C14.4544 18.65 14.2206 18.5888 13.9787 18.5888C13.6587 18.5888 13.3881 18.6919 13.1494 18.7831C12.9344 18.8644 12.7469 18.9319 12.5938 18.91C12.0813 18.835 11.7756 18.6081 11.3538 18.2944C11.12 18.1206 10.8544 17.9231 10.5256 17.7344C10.255 17.5806 10.0437 17.42 9.81938 17.2506C9.4125 16.9425 8.99188 16.6231 8.30688 16.4306C7.435 16.1856 6.6925 16.2456 5.78125 16.3806L5.55687 16.4137C5.40812 16.435 5.27063 16.4475 5.14062 16.4594C4.6675 16.5037 4.17875 16.5494 3.62 16.9306C3.01562 17.3506 2.87188 17.9213 2.75563 18.38C2.68187 18.6719 2.6175 18.9237 2.4425 19.1381C2.26562 19.3594 2.08 19.4856 1.84563 19.6456C1.66125 19.7712 1.46 19.9112 1.25375 20.1044C1.2525 20.0675 1.25 20.0344 1.25 20C1.25 10.8675 7.78125 3.26313 16.4269 1.59438C16.4963 1.70188 16.5675 1.80625 16.6356 1.90062C16.8531 2.20062 16.9069 2.29625 16.8925 2.4725C16.8769 2.67938 16.7981 2.77875 16.5519 3.0625L16.4294 3.20625C16.2669 3.40125 16.1 3.49688 15.8681 3.62875C15.6631 3.74625 15.43 3.87875 15.1737 4.1C15.0719 4.18875 14.9675 4.25625 14.8688 4.32125C14.5706 4.51875 14.1619 4.79 14.0119 5.38437C13.8594 5.99875 14.2113 6.42312 14.4219 6.67687C14.4894 6.75937 14.6037 6.89687 14.6012 6.93375C14.5763 7.2525 14.5094 7.40438 14.28 7.64625C14.2356 7.695 14.1969 7.72062 14.1075 7.77875C14.0369 7.82375 13.9625 7.8725 13.88 7.93562L13.8044 8.00438C13.7669 8.04375 13.4381 8.40625 13.2431 8.97375C13.095 9.42062 13.0887 9.65375 13.2156 9.9725L13.2431 10.0462C13.2656 10.1219 13.2869 10.3881 13.2881 10.56L13.2356 11.3212L13.7444 11.4481C14.0787 11.5312 14.2481 11.6006 14.59 11.7694C14.8094 11.875 14.9538 11.9756 15.1363 12.1025L15.32 12.2269C15.565 12.3731 15.8138 12.3475 16.0781 12.3181C16.21 12.3313 16.3263 12.34 16.4369 12.3494C16.6775 12.3681 16.89 12.3856 17.1925 12.4294L17.3888 12.4538C17.5413 12.4725 17.6625 12.4856 17.8313 12.5306C17.9275 12.5575 18.0094 12.62 18.145 12.7262C18.3762 12.9087 18.6931 13.1581 19.2106 13.1581C19.6631 13.155 19.9556 12.9563 20.1694 12.8106C20.2931 12.7269 20.3675 12.6781 20.46 12.6525C20.6775 12.5906 20.9263 12.5931 21.1794 12.6062C21.5444 12.6269 21.9137 12.6194 22.2563 12.5344C22.4156 12.4944 22.5425 12.4394 22.6637 12.3831C22.77 12.3344 22.8094 12.3175 22.8225 12.315L22.8675 12.3162L22.9 12.3125C22.9412 12.3156 23.0056 12.3431 23.0869 12.3775C23.2475 12.4463 23.4669 12.5413 23.7981 12.5525C24.4725 12.5525 25.5175 11.6838 25.53 11.6731C25.6462 11.5706 25.7431 11.5256 25.9044 11.45C26.0181 11.3969 26.1375 11.34 26.3019 11.2444C26.4744 11.13 26.6119 11.0188 26.7419 10.9119C26.9256 10.7612 27.0462 10.6613 27.2544 10.5887C27.69 10.4337 27.8975 10.3762 28.1675 10.4675C28.3219 10.5212 28.3844 10.5644 28.5838 10.7263C28.6813 10.805 28.7331 10.88 28.8206 11.0044C28.9056 11.1263 28.9956 11.2525 29.1175 11.3825C29.1719 11.4431 29.2169 11.5 29.2594 11.5544C29.3956 11.7262 29.565 11.9412 29.8825 12.1163C30.2781 12.3313 30.7625 12.3 31.1188 12.2281C31.2788 12.1956 31.4031 12.1656 31.5363 12.1862L31.7575 12.2162C31.91 12.2356 32.02 12.25 32.1269 12.285C32.1806 12.3013 32.2369 12.3237 32.3044 12.36C32.5781 12.5056 32.6806 12.6356 32.9212 12.9956C33.135 13.3219 33.1819 13.5619 33.2675 13.9981L33.3119 14.2212C33.3875 14.6056 33.3956 14.8669 33.4062 15.2281L33.4188 15.5725C33.4256 15.7381 33.4387 15.8831 33.4525 16.02C33.4794 16.2938 33.4969 16.475 33.435 16.7313C33.3981 16.8875 33.3237 16.9906 33.1838 17.1744C33.025 17.3825 32.8275 17.6419 32.7212 18.03L32.69 18.1362C32.5769 18.5238 32.4694 18.89 32.59 19.4319C32.6181 19.5525 32.6125 19.9069 32.6081 20.1656C32.5962 20.8731 32.5894 21.3406 32.8856 21.6419C33.0213 21.78 33.2013 21.8556 33.3925 21.8556L33.5863 21.8425L33.7138 21.7812C33.8919 21.6962 34.0462 21.5744 34.185 21.4394C34.19 21.4506 34.1944 21.4613 34.1987 21.4725C34.3706 21.8562 34.7381 22.0769 35.2081 22.0769C35.7231 22.0769 36.7656 21.7119 36.8369 21.0363C36.8537 20.8581 36.8469 20.6969 36.8381 20.545C36.825 20.3256 36.8294 20.2831 36.8713 20.2163C36.8956 20.1975 37.0006 20.1669 37.07 20.1475C37.2887 20.0844 37.5869 19.9994 37.8631 19.7325C38.105 19.4925 38.2131 19.2512 38.3 19.0581C38.365 18.9131 38.4025 18.8337 38.4788 18.755C38.5238 18.7075 38.585 18.6763 38.6963 18.6231C38.7275 19.0781 38.75 19.5362 38.75 20C38.75 30.355 30.355 38.75 20 38.75Z" fill="white"/>
<path d="M27.8931 17.6012C27.2056 17.7994 26.9581 18.3244 26.7768 18.7081C26.6799 18.9144 26.5956 19.0919 26.4568 19.22C26.2118 19.4487 25.9749 19.575 25.6999 19.7212C25.3949 19.8837 25.0493 20.0675 24.6918 20.4012C24.5643 20.5194 24.4181 20.6212 24.2787 20.7206C23.8181 21.0475 23.1212 21.5419 23.3256 22.4731C23.4593 23.0575 23.9087 23.4062 24.5268 23.4062C24.9362 23.4062 25.3806 23.2631 25.8112 23.1244C26.0237 23.0562 26.2343 22.9869 26.4262 22.9444C27.5212 22.705 28.2706 22.4181 29.0906 21.5944C29.1806 21.505 29.2743 21.4156 29.3693 21.3244C30.0781 20.6494 31.1481 19.6287 30.3524 18.4475C29.8174 17.6444 28.8693 17.3206 27.8931 17.6012ZM28.5062 20.4194C28.4049 20.5162 28.3043 20.6125 28.2062 20.71C27.5918 21.3275 27.0774 21.5219 26.1581 21.7231C25.9299 21.7731 25.6787 21.8531 25.4268 21.9344C25.1131 22.035 24.7587 22.15 24.5431 22.1556C24.5562 22.0794 24.6556 21.9862 25.0024 21.74C25.1718 21.6194 25.3649 21.4825 25.5431 21.3162C25.7818 21.0944 26.0156 20.9694 26.2868 20.825C26.5949 20.6606 26.9449 20.475 27.3068 20.1362C27.6218 19.8462 27.7799 19.5112 27.9068 19.2419C28.0668 18.9037 28.1162 18.8381 28.2393 18.8025C28.3599 18.7675 28.4774 18.75 28.5887 18.75C28.8956 18.75 29.1393 18.8812 29.3137 19.1431C29.4749 19.3825 29.2937 19.6687 28.5062 20.4194Z" fill="white"/>
<path d="M20.2637 33.1756C20.1193 33.1756 19.9731 33.1981 19.8218 33.2444C18.9106 33.5381 18.9537 34.4531 18.9762 34.945C18.985 35.1256 18.9925 35.2963 18.9756 35.445C18.9612 35.5806 18.9237 35.7106 18.8906 35.8356C18.7793 36.2556 18.6118 36.8894 19.1637 37.4331C19.4237 37.6831 19.7518 37.8156 20.1137 37.8156C20.6506 37.8156 21.255 37.505 21.7343 36.9819C22.4681 36.165 22.4768 34.9713 21.7612 34.0863C21.4275 33.6619 20.9568 33.1756 20.2637 33.1756ZM20.8075 36.1419C20.5537 36.42 20.2662 36.5656 20.1137 36.5656C20.0762 36.5656 20.0575 36.5581 20.0275 36.5325C20.0143 36.475 20.0662 36.2831 20.0993 36.1556C20.1437 35.9863 20.195 35.7938 20.2175 35.5844C20.2462 35.34 20.2343 35.0994 20.225 34.8863C20.2181 34.7406 20.2087 34.5294 20.2268 34.4294C20.3318 34.4106 20.455 34.4475 20.7831 34.865C21.12 35.2819 21.1287 35.785 20.8075 36.1419Z" fill="white"/>
</g>
<defs>
<clipPath id="clip0_9_20">
<rect width="40" height="40" fill="white"/>
</clipPath>
</defs>
</svg>
