<svg width="88" height="75" viewBox="0 0 88 75" fill="none" xmlns="http://www.w3.org/2000/svg">
<path d="M15.625 0C23.9093 0 30.6878 6.4471 31.2168 14.5977L31.2478 15.8897C31.1879 38.1045 23.4966 57.2219 8.09558 73.5308C6.31814 75.4131 3.35139 75.498 1.46917 73.7206C-0.413055 71.9431 -0.497996 68.9764 1.27945 67.0942C11.5332 56.2359 17.906 44.1319 20.5144 30.4753C18.9718 30.9768 17.3303 31.25 15.625 31.25C6.99556 31.25 0 24.2545 0 15.625C0 6.99555 6.99556 0 15.625 0ZM71.875 0C80.1593 0 86.9378 6.4471 87.4668 14.5977L87.4978 15.8897C87.4382 38.143 79.7657 57.2252 64.3433 73.5333C62.5645 75.4142 59.5977 75.497 57.7167 73.7183C55.8358 71.9395 55.753 68.9727 57.5318 67.0917C67.8021 56.2316 74.1683 44.1442 76.7703 30.4765C75.2218 30.9768 73.5803 31.25 71.875 31.25C63.2456 31.25 56.25 24.2545 56.25 15.625C56.25 6.99555 63.2456 0 71.875 0ZM15.625 9.375C12.1732 9.375 9.37501 12.1732 9.37501 15.625C9.37501 19.0768 12.1732 21.875 15.625 21.875C18.8302 21.875 21.4719 19.4622 21.833 16.3539L21.8752 15.5802C21.8477 12.146 19.0599 9.375 15.625 9.375ZM71.875 9.375C68.4232 9.375 65.625 12.1732 65.625 15.625C65.625 19.0768 68.4232 21.875 71.875 21.875C75.0802 21.875 77.7219 19.4622 78.083 16.3539L78.1252 15.5802C78.0977 12.146 75.3099 9.375 71.875 9.375Z" fill="white" fill-opacity="0.9"/>
</svg>
