<svg width="150" height="112" viewBox="0 0 150 112" fill="none" xmlns="http://www.w3.org/2000/svg">
<path d="M35.0016 0.508789C15.6706 0.508789 0 16.1838 0 35.5215C0 54.8524 15.6706 70.5274 35.0016 70.5274C35.0016 70.5274 34.8322 83.5329 24.2666 102.251C23.093 106.002 25.1851 109.996 28.938 111.163C31.6008 112 34.4027 111.186 36.2121 109.291C60.5065 82.7188 70.0163 51.4449 70.0163 35.5215C70.0163 16.1838 54.346 0.508789 35.0016 0.508789Z" fill="white" fill-opacity="0.9"/>
<path d="M114.985 0.508789C95.654 0.508789 79.9834 16.1841 79.9834 35.5215C79.9834 54.8524 95.654 70.5274 114.985 70.5274C114.985 70.5274 114.816 83.5329 104.25 102.251C103.076 106.002 105.169 109.996 108.921 111.163C111.584 112 114.386 111.186 116.195 109.291C140.49 82.7188 150 51.4449 150 35.5215C150 16.1838 134.329 0.508789 114.985 0.508789Z" fill="white" fill-opacity="0.9"/>
</svg>
