<svg width="40" height="40" viewBox="0 0 40 40" fill="none" xmlns="http://www.w3.org/2000/svg">
<g clip-path="url(#clip0_8_18)">
<path fill-rule="evenodd" clip-rule="evenodd" d="M0 0V40H40V0H0ZM33.8462 10.386C33.8462 10.5546 33.7092 10.6911 33.5405 10.6911H32.6846C32.3728 10.6911 32.0917 10.8801 31.9742 11.1692L24.1662 30.3261L20.2338 21.4989L16.0264 30.326L7.97442 11.1617C7.85451 10.8769 7.57574 10.6918 7.26681 10.6918H6.45969C6.29108 10.6918 6.15385 10.5546 6.15385 10.3859V9.67393H13.1118L13.0922 10.3942C13.0878 10.56 12.9522 10.6918 12.7866 10.6918H11.6218C11.1887 10.6918 10.892 11.1288 11.0508 11.5312L16.704 25.8323L19.5631 19.6358L15.95 11.1581C15.8293 10.8754 15.5521 10.6911 15.244 10.6911H14.682C14.5134 10.6911 14.3762 10.5546 14.3762 10.386V9.67402H19.6013V10.386C19.6013 10.5546 19.4642 10.6911 19.2956 10.6911C18.8549 10.6911 18.5574 11.1423 18.7312 11.5478L20.8664 16.5211L23.0465 11.5524C23.2242 11.1467 22.9274 10.6919 22.4838 10.6919H21.6676C21.4982 10.6919 21.3618 10.5547 21.3618 10.386V9.67402H26.8336V10.386C26.8336 10.5546 26.6971 10.6919 26.5277 10.6919H25.6171C25.3196 10.6919 25.0483 10.8644 24.9224 11.1341L21.5543 18.3363L24.6991 25.726L30.2014 11.5245C30.3543 11.1227 30.0575 10.6918 29.6273 10.6918H28.2673C28.0986 10.6918 27.9614 10.5546 27.9614 10.3859V9.67393H33.8462V10.386Z" fill="white"/>
</g>
<defs>
<clipPath id="clip0_8_18">
<rect width="40" height="40" rx="5" fill="white"/>
</clipPath>
</defs>
</svg>
